<?xml version="1.0" standalone="no"?>
<!DOCTYPE svg PUBLIC "-//W3C//DTD SVG 20010904//EN"
 "http://www.w3.org/TR/2001/REC-SVG-20010904/DTD/svg10.dtd">
<svg version="1.0" xmlns="http://www.w3.org/2000/svg"
 width="400.000000pt" height="390.000000pt" viewBox="0 0 400.000000 390.000000"
 preserveAspectRatio="xMidYMid meet">

<g transform="translate(0.000000,390.000000) scale(0.100000,-0.100000)"
fill="#FFFFFF" stroke="none">
<path d="M1850 3763 c-298 -30 -522 -96 -745 -220 -514 -287 -852 -769 -946
-1348 -17 -104 -18 -455 -1 -560 42 -256 138 -512 269 -715 398 -614 1081
-934 1803 -845 529 66 1001 358 1302 805 244 362 353 803 304 1230 -41 357
-171 677 -388 955 -105 134 -303 313 -458 414 -84 55 -262 142 -370 181 -229
82 -549 125 -770 103z m-530 -1413 c0 -5 -12 -10 -26 -10 -31 0 -38 25 59
-240 70 -191 77 -205 101 -208 14 -2 26 -8 26 -13 0 -12 -117 -12 -125 1 -3 6
3 10 14 10 24 0 25 8 9 64 -18 65 -20 66 -133 66 l-103 0 -10 -27 c-12 -32
-32 -94 -32 -99 0 -2 11 -4 25 -4 14 0 25 -4 25 -10 0 -6 -28 -10 -65 -10 -37
0 -65 4 -65 10 0 6 11 10 24 10 27 0 22 -10 131 285 30 82 55 153 55 157 0 4
-12 8 -26 8 -14 0 -23 4 -19 10 3 6 35 10 71 10 36 0 64 -4 64 -10z m420 -155
c30 -27 40 -78 40 -197 0 -101 1 -108 20 -108 11 0 20 -4 20 -10 0 -5 -14 -10
-31 -10 -22 0 -32 5 -36 20 -6 22 -18 26 -28 10 -9 -15 -73 -40 -102 -40 -63
0 -111 59 -98 118 12 55 68 82 166 82 l59 0 0 35 c0 55 -24 93 -64 101 -38 7
-98 -9 -116 -32 -16 -18 -30 -18 -30 1 0 9 19 25 43 36 51 24 127 21 157 -6z
m330 -15 c0 -22 -4 -40 -10 -40 -5 0 -10 11 -10 25 0 33 -24 33 -73 0 l-37
-26 0 -93 c0 -51 -3 -108 -6 -125 -6 -28 -4 -31 20 -31 14 0 26 -4 26 -10 0
-6 -27 -10 -60 -10 -63 0 -75 8 -37 25 21 10 22 14 22 150 0 138 0 140 -22
143 -36 5 -27 22 12 22 28 0 35 -4 35 -20 0 -25 -1 -25 56 5 69 37 84 34 84
-15z m128 12 l3 -22 26 20 c52 40 139 34 164 -12 11 -20 11 -20 32 0 57 52
114 56 158 13 l29 -29 0 -136 c0 -129 1 -136 20 -136 11 0 20 -4 20 -10 0 -5
-24 -10 -54 -10 -30 0 -58 5 -61 10 -3 6 3 10 14 10 31 0 41 31 41 127 0 156
-28 199 -111 174 -61 -18 -67 -31 -71 -174 -3 -116 -1 -127 15 -127 9 0 17 -4
17 -10 0 -5 -25 -10 -55 -10 -58 0 -70 9 -32 25 21 10 22 15 22 137 0 147 -7
163 -75 163 -31 0 -47 -7 -69 -30 -29 -29 -30 -32 -33 -153 -3 -122 -3 -122
20 -122 13 0 20 -4 17 -10 -8 -12 -102 -13 -109 -1 -3 5 5 12 19 15 l25 6 0
144 c0 141 -1 145 -22 148 -12 2 -23 9 -26 16 -3 10 6 12 34 10 32 -2 40 -7
42 -26z m696 18 c47 -17 56 -46 59 -186 3 -112 5 -129 20 -132 29 -6 19 -22
-13 -22 -25 0 -30 4 -30 25 l0 24 -36 -24 c-81 -55 -170 -37 -188 37 -20 80
26 119 146 126 l80 5 -5 44 c-7 63 -34 88 -96 87 -32 0 -58 -7 -79 -22 -17
-12 -33 -18 -36 -13 -7 11 39 46 69 54 35 8 83 7 109 -3z m-1670 -486 c8 -21
8 -74 0 -74 -4 0 -17 11 -30 25 -17 19 -33 25 -64 25 -75 0 -122 -76 -105
-167 16 -87 116 -124 177 -66 15 15 28 23 28 17 -1 -31 -45 -54 -105 -54 -40
0 -52 5 -79 33 -59 58 -56 170 5 221 40 34 103 38 147 10 24 -16 29 -5 12 27
-6 11 -7 19 -1 19 5 0 12 -7 15 -16z m314 -137 c2 -131 4 -147 20 -148 12 0
11 -3 -6 -10 -15 -6 -30 -5 -40 1 -10 5 -12 10 -4 10 17 0 17 286 0 294 -7 3
-4 5 7 3 19 -2 20 -11 23 -150z m96 147 c14 -5 16 -28 16 -150 0 -89 4 -144
10 -144 6 0 10 -4 10 -9 0 -4 -12 -7 -26 -5 -26 2 -47 14 -26 14 17 0 17 271
0 288 -13 13 -8 15 16 6z m656 -44 c0 -5 -4 -10 -10 -10 -5 0 -10 5 -10 10 0
6 5 10 10 10 6 0 10 -4 10 -10z m-98 -71 c22 -1 22 -1 -2 -8 -23 -6 -25 -13
-28 -66 -4 -82 3 -103 36 -108 20 -4 18 -4 -8 -3 l-35 1 -3 80 c-2 44 -7 84
-11 88 -5 5 -3 19 3 32 10 23 11 23 18 4 4 -10 17 -19 30 -20z m-767 -5 c28
-18 47 -75 38 -113 -10 -46 -42 -71 -90 -71 -68 0 -103 49 -89 125 12 64 86
95 141 59z m430 -9 c14 -13 25 -33 25 -45 0 -18 -6 -20 -75 -20 -72 0 -75 -1
-75 -24 0 -13 9 -35 21 -50 24 -31 72 -35 101 -9 10 9 18 12 18 7 0 -38 -96
-48 -130 -14 -61 61 -20 180 62 180 17 0 39 -10 53 -25z m216 4 c28 -28 15
-38 -14 -11 -37 35 -79 25 -105 -25 -21 -39 -10 -104 22 -125 20 -13 69 -8 88
9 10 9 18 12 18 7 0 -38 -96 -48 -130 -14 -41 41 -38 125 7 160 34 26 87 26
114 -1z m426 6 c48 -33 51 -118 6 -167 -18 -20 -82 -25 -113 -8 -25 13 -43 73
-35 112 15 65 90 99 142 63z m113 0 c0 -13 4 -14 23 -4 l22 12 -22 -25 c-19
-20 -23 -36 -23 -91 0 -47 4 -67 13 -67 7 0 5 -5 -5 -10 -9 -6 -24 -7 -33 -4
-16 6 -16 8 -1 16 24 14 23 155 -1 174 -17 12 -16 13 5 14 13 0 22 -6 22 -15z
m116 1 c15 -12 20 -30 24 -101 5 -89 1 -101 -27 -91 -12 5 -14 9 -5 18 7 7 12
41 12 78 0 70 -12 92 -55 103 -16 4 -15 5 6 6 14 0 34 -5 45 -13z m199 -6 c21
-23 9 -26 -19 -5 -27 21 -50 19 -72 -6 -25 -28 -10 -49 49 -66 58 -17 75 -44
52 -79 -13 -20 -24 -24 -64 -24 -31 0 -53 5 -61 15 -18 22 -5 31 15 11 25 -24
82 -21 96 6 10 18 8 24 -11 40 -12 10 -30 18 -39 18 -9 0 -27 7 -39 16 -27 19
-30 68 -4 83 29 17 77 13 97 -9z m-637 -83 c2 -60 7 -87 15 -87 7 0 4 -5 -5
-11 -12 -7 -24 -7 -35 0 -10 6 -12 11 -5 11 8 0 12 24 12 84 0 58 -4 86 -12
90 -7 3 -4 5 7 3 18 -2 20 -11 23 -90z"/>
<path d="M1198 2173 l-46 -128 90 -3 c50 -1 93 -1 96 2 6 6 -80 256 -88 256
-3 0 -27 -57 -52 -127z"/>
<path d="M1615 2033 c-33 -8 -65 -44 -65 -74 0 -74 84 -97 160 -44 37 26 40
31 40 76 l0 49 -57 -1 c-32 -1 -67 -3 -78 -6z"/>
<path d="M2774 2026 c-34 -15 -44 -33 -44 -75 0 -74 104 -89 172 -24 22 21 28
36 28 70 l0 43 -62 0 c-35 -1 -77 -7 -94 -14z"/>
<path d="M1333 1602 c-39 -30 -43 -111 -7 -146 8 -9 31 -16 50 -16 28 0 38 6
54 33 27 43 25 79 -6 116 -29 35 -58 39 -91 13z"/>
<path d="M1754 1595 c-14 -14 -22 -30 -19 -35 3 -6 33 -10 66 -10 51 0 59 3
59 18 0 25 -31 52 -59 52 -12 0 -33 -11 -47 -25z"/>
<path d="M2397 1592 c-53 -55 -23 -152 48 -152 78 0 102 116 36 167 -26 20
-56 15 -84 -15z"/>
</g>
</svg>
